<mxfile host="app.diagrams.net" modified="2023-11-07T02:41:20.501Z" agent="Mozilla/5.0 (Windows NT 10.0; Win64; x64) AppleWebKit/537.36 (KHTML, like Gecko) Chrome/119.0.0.0 Safari/537.36" etag="pGkxpHP7eNmeUqm3dafv" version="22.0.8" type="device">
  <diagram name="PÃ¡gina-1" id="ryy8EX0iXBQiyqMdmUX9">
    <mxGraphModel dx="1687" dy="882" grid="1" gridSize="10" guides="1" tooltips="1" connect="1" arrows="1" fold="1" page="1" pageScale="1" pageWidth="827" pageHeight="1169" math="0" shadow="0">
      <root>
        <mxCell id="0" />
        <mxCell id="1" parent="0" />
        <mxCell id="KO_ulKDEuLXpoR2yVx4b-1" value="Categoria" style="swimlane;fontStyle=1;align=center;verticalAlign=top;childLayout=stackLayout;horizontal=1;startSize=26;horizontalStack=0;resizeParent=1;resizeParentMax=0;resizeLast=0;collapsible=1;marginBottom=0;whiteSpace=wrap;html=1;" parent="1" vertex="1">
          <mxGeometry x="40" y="480" width="270" height="140" as="geometry" />
        </mxCell>
        <mxCell id="KO_ulKDEuLXpoR2yVx4b-2" value="+ nome: String&lt;br&gt;&lt;br&gt;+ tarefas: List&amp;lt;Tarefa&amp;gt;" style="text;strokeColor=none;fillColor=none;align=left;verticalAlign=top;spacingLeft=4;spacingRight=4;overflow=hidden;rotatable=0;points=[[0,0.5],[1,0.5]];portConstraint=eastwest;whiteSpace=wrap;html=1;" parent="KO_ulKDEuLXpoR2yVx4b-1" vertex="1">
          <mxGeometry y="26" width="270" height="54" as="geometry" />
        </mxCell>
        <mxCell id="KO_ulKDEuLXpoR2yVx4b-3" value="" style="line;strokeWidth=1;fillColor=none;align=left;verticalAlign=middle;spacingTop=-1;spacingLeft=3;spacingRight=3;rotatable=0;labelPosition=right;points=[];portConstraint=eastwest;strokeColor=inherit;" parent="KO_ulKDEuLXpoR2yVx4b-1" vertex="1">
          <mxGeometry y="80" width="270" height="8" as="geometry" />
        </mxCell>
        <mxCell id="KO_ulKDEuLXpoR2yVx4b-4" value="+ categoria(String nome, List&amp;lt;Tarefa&amp;gt; tarefas)&lt;br&gt;&lt;br&gt;+ addTarefa(Tarefa tarefa)" style="text;strokeColor=none;fillColor=none;align=left;verticalAlign=top;spacingLeft=4;spacingRight=4;overflow=hidden;rotatable=0;points=[[0,0.5],[1,0.5]];portConstraint=eastwest;whiteSpace=wrap;html=1;" parent="KO_ulKDEuLXpoR2yVx4b-1" vertex="1">
          <mxGeometry y="88" width="270" height="52" as="geometry" />
        </mxCell>
        <mxCell id="23oxVJ265cRKqnfMOttz-2" value="Tarefa" style="swimlane;fontStyle=1;align=center;verticalAlign=top;childLayout=stackLayout;horizontal=1;startSize=26;horizontalStack=0;resizeParent=1;resizeParentMax=0;resizeLast=0;collapsible=1;marginBottom=0;whiteSpace=wrap;html=1;" vertex="1" parent="1">
          <mxGeometry x="40" y="720" width="270" height="210" as="geometry" />
        </mxCell>
        <mxCell id="23oxVJ265cRKqnfMOttz-3" value="+ nome: String&lt;br&gt;&lt;br&gt;+ prioridade: int&lt;br&gt;&lt;br&gt;+ data: Date&lt;br&gt;&lt;br&gt;+ categoria: Categoria" style="text;strokeColor=none;fillColor=none;align=left;verticalAlign=top;spacingLeft=4;spacingRight=4;overflow=hidden;rotatable=0;points=[[0,0.5],[1,0.5]];portConstraint=eastwest;whiteSpace=wrap;html=1;" vertex="1" parent="23oxVJ265cRKqnfMOttz-2">
          <mxGeometry y="26" width="270" height="124" as="geometry" />
        </mxCell>
        <mxCell id="23oxVJ265cRKqnfMOttz-4" value="" style="line;strokeWidth=1;fillColor=none;align=left;verticalAlign=middle;spacingTop=-1;spacingLeft=3;spacingRight=3;rotatable=0;labelPosition=right;points=[];portConstraint=eastwest;strokeColor=inherit;" vertex="1" parent="23oxVJ265cRKqnfMOttz-2">
          <mxGeometry y="150" width="270" height="8" as="geometry" />
        </mxCell>
        <mxCell id="23oxVJ265cRKqnfMOttz-5" value="+ tarefa(String nome, int prioridade, Date data, Categoria categoria)" style="text;strokeColor=none;fillColor=none;align=left;verticalAlign=top;spacingLeft=4;spacingRight=4;overflow=hidden;rotatable=0;points=[[0,0.5],[1,0.5]];portConstraint=eastwest;whiteSpace=wrap;html=1;" vertex="1" parent="23oxVJ265cRKqnfMOttz-2">
          <mxGeometry y="158" width="270" height="52" as="geometry" />
        </mxCell>
        <mxCell id="23oxVJ265cRKqnfMOttz-6" value="TarefaView" style="swimlane;fontStyle=1;align=center;verticalAlign=top;childLayout=stackLayout;horizontal=1;startSize=26;horizontalStack=0;resizeParent=1;resizeParentMax=0;resizeLast=0;collapsible=1;marginBottom=0;whiteSpace=wrap;html=1;" vertex="1" parent="1">
          <mxGeometry x="610" y="230" width="210" height="80" as="geometry" />
        </mxCell>
        <mxCell id="23oxVJ265cRKqnfMOttz-8" value="" style="line;strokeWidth=1;fillColor=none;align=left;verticalAlign=middle;spacingTop=-1;spacingLeft=3;spacingRight=3;rotatable=0;labelPosition=right;points=[];portConstraint=eastwest;strokeColor=inherit;" vertex="1" parent="23oxVJ265cRKqnfMOttz-6">
          <mxGeometry y="26" width="210" height="8" as="geometry" />
        </mxCell>
        <mxCell id="23oxVJ265cRKqnfMOttz-9" value="&lt;br&gt;+ exibirTarefas(List&amp;lt;Tarefa&amp;gt; tarefas)" style="text;strokeColor=none;fillColor=none;align=left;verticalAlign=top;spacingLeft=4;spacingRight=4;overflow=hidden;rotatable=0;points=[[0,0.5],[1,0.5]];portConstraint=eastwest;whiteSpace=wrap;html=1;" vertex="1" parent="23oxVJ265cRKqnfMOttz-6">
          <mxGeometry y="34" width="210" height="46" as="geometry" />
        </mxCell>
        <mxCell id="23oxVJ265cRKqnfMOttz-10" value="&lt;p style=&quot;margin:0px;margin-top:4px;text-align:center;&quot;&gt;&lt;i&gt;&amp;lt;&amp;lt;Interface&amp;gt;&amp;gt;&lt;/i&gt;&lt;br&gt;&lt;b&gt;TarefaObserver&lt;/b&gt;&lt;/p&gt;&lt;hr size=&quot;1&quot;&gt;&lt;p style=&quot;margin:0px;margin-left:4px;&quot;&gt;+ update()&lt;/p&gt;" style="verticalAlign=top;align=left;overflow=fill;fontSize=12;fontFamily=Helvetica;html=1;whiteSpace=wrap;" vertex="1" parent="1">
          <mxGeometry x="400" y="380" width="190" height="70" as="geometry" />
        </mxCell>
        <mxCell id="23oxVJ265cRKqnfMOttz-12" value="OrdenaDataTarefa" style="swimlane;fontStyle=1;align=center;verticalAlign=top;childLayout=stackLayout;horizontal=1;startSize=26;horizontalStack=0;resizeParent=1;resizeParentMax=0;resizeLast=0;collapsible=1;marginBottom=0;whiteSpace=wrap;html=1;" vertex="1" parent="1">
          <mxGeometry x="960" y="500" width="270" height="86" as="geometry" />
        </mxCell>
        <mxCell id="23oxVJ265cRKqnfMOttz-14" value="" style="line;strokeWidth=1;fillColor=none;align=left;verticalAlign=middle;spacingTop=-1;spacingLeft=3;spacingRight=3;rotatable=0;labelPosition=right;points=[];portConstraint=eastwest;strokeColor=inherit;" vertex="1" parent="23oxVJ265cRKqnfMOttz-12">
          <mxGeometry y="26" width="270" height="8" as="geometry" />
        </mxCell>
        <mxCell id="23oxVJ265cRKqnfMOttz-15" value="+ sort(List&amp;lt;Tarefa&amp;gt; tarefas)&lt;br&gt;&lt;br&gt;+ dateComparator()" style="text;strokeColor=none;fillColor=none;align=left;verticalAlign=top;spacingLeft=4;spacingRight=4;overflow=hidden;rotatable=0;points=[[0,0.5],[1,0.5]];portConstraint=eastwest;whiteSpace=wrap;html=1;" vertex="1" parent="23oxVJ265cRKqnfMOttz-12">
          <mxGeometry y="34" width="270" height="52" as="geometry" />
        </mxCell>
        <mxCell id="23oxVJ265cRKqnfMOttz-16" value="&lt;p style=&quot;margin:0px;margin-top:4px;text-align:center;&quot;&gt;&lt;i&gt;&amp;lt;&amp;lt;Interface&amp;gt;&amp;gt;&lt;/i&gt;&lt;br&gt;&lt;b&gt;OrdenacaoTarefa&lt;/b&gt;&lt;/p&gt;&lt;hr size=&quot;1&quot;&gt;&lt;p style=&quot;margin:0px;margin-left:4px;&quot;&gt;+ sort(List&amp;lt;Tarefa&amp;gt; tarefas)&lt;/p&gt;" style="verticalAlign=top;align=left;overflow=fill;fontSize=12;fontFamily=Helvetica;html=1;whiteSpace=wrap;" vertex="1" parent="1">
          <mxGeometry x="1100" y="360" width="190" height="70" as="geometry" />
        </mxCell>
        <mxCell id="23oxVJ265cRKqnfMOttz-17" value="OrdenaPrioridadeTarefa" style="swimlane;fontStyle=1;align=center;verticalAlign=top;childLayout=stackLayout;horizontal=1;startSize=26;horizontalStack=0;resizeParent=1;resizeParentMax=0;resizeLast=0;collapsible=1;marginBottom=0;whiteSpace=wrap;html=1;" vertex="1" parent="1">
          <mxGeometry x="1270" y="508" width="270" height="70" as="geometry" />
        </mxCell>
        <mxCell id="23oxVJ265cRKqnfMOttz-18" value="" style="line;strokeWidth=1;fillColor=none;align=left;verticalAlign=middle;spacingTop=-1;spacingLeft=3;spacingRight=3;rotatable=0;labelPosition=right;points=[];portConstraint=eastwest;strokeColor=inherit;" vertex="1" parent="23oxVJ265cRKqnfMOttz-17">
          <mxGeometry y="26" width="270" height="8" as="geometry" />
        </mxCell>
        <mxCell id="23oxVJ265cRKqnfMOttz-19" value="+ sort(List&amp;lt;Tarefa&amp;gt; tarefas)" style="text;strokeColor=none;fillColor=none;align=left;verticalAlign=top;spacingLeft=4;spacingRight=4;overflow=hidden;rotatable=0;points=[[0,0.5],[1,0.5]];portConstraint=eastwest;whiteSpace=wrap;html=1;" vertex="1" parent="23oxVJ265cRKqnfMOttz-17">
          <mxGeometry y="34" width="270" height="36" as="geometry" />
        </mxCell>
        <mxCell id="23oxVJ265cRKqnfMOttz-20" value="TarefaController" style="swimlane;fontStyle=1;align=center;verticalAlign=top;childLayout=stackLayout;horizontal=1;startSize=26;horizontalStack=0;resizeParent=1;resizeParentMax=0;resizeLast=0;collapsible=1;marginBottom=0;whiteSpace=wrap;html=1;" vertex="1" parent="1">
          <mxGeometry x="610" y="550" width="270" height="380" as="geometry" />
        </mxCell>
        <mxCell id="23oxVJ265cRKqnfMOttz-21" value="+ tarefas: List&amp;lt;Tarefa&amp;gt;&lt;br&gt;&lt;br&gt;+ view: TarefaView&lt;br&gt;&lt;br&gt;+ observers: List&amp;lt;TarefaObserver&amp;gt;&lt;br&gt;&lt;br&gt;+ ordenacaoTarefa: OrdenacaoTarefa" style="text;strokeColor=none;fillColor=none;align=left;verticalAlign=top;spacingLeft=4;spacingRight=4;overflow=hidden;rotatable=0;points=[[0,0.5],[1,0.5]];portConstraint=eastwest;whiteSpace=wrap;html=1;" vertex="1" parent="23oxVJ265cRKqnfMOttz-20">
          <mxGeometry y="26" width="270" height="124" as="geometry" />
        </mxCell>
        <mxCell id="23oxVJ265cRKqnfMOttz-22" value="" style="line;strokeWidth=1;fillColor=none;align=left;verticalAlign=middle;spacingTop=-1;spacingLeft=3;spacingRight=3;rotatable=0;labelPosition=right;points=[];portConstraint=eastwest;strokeColor=inherit;" vertex="1" parent="23oxVJ265cRKqnfMOttz-20">
          <mxGeometry y="150" width="270" height="8" as="geometry" />
        </mxCell>
        <mxCell id="23oxVJ265cRKqnfMOttz-23" value="+ tarefaController(List&amp;lt;Tarefa&amp;gt; tarefas, TarefaView view)&lt;br&gt;&lt;br&gt;+ addTarefa(Tarefa tarefa)&lt;br&gt;&lt;br&gt;+ removeTarefa(Tarefa tarefa)&lt;br&gt;&lt;br&gt;+ updateView()&lt;br&gt;&lt;br&gt;+ addObserver(TarefaObserver observer)&lt;br&gt;&lt;br&gt;+ setOrdenacao(OrdenacaoTarefa ordTarefa)&lt;br&gt;&lt;br&gt;+ notifyObservers()" style="text;strokeColor=none;fillColor=none;align=left;verticalAlign=top;spacingLeft=4;spacingRight=4;overflow=hidden;rotatable=0;points=[[0,0.5],[1,0.5]];portConstraint=eastwest;whiteSpace=wrap;html=1;" vertex="1" parent="23oxVJ265cRKqnfMOttz-20">
          <mxGeometry y="158" width="270" height="222" as="geometry" />
        </mxCell>
        <mxCell id="23oxVJ265cRKqnfMOttz-24" value="" style="endArrow=diamondThin;endFill=1;endSize=24;html=1;rounded=0;entryX=0.75;entryY=0;entryDx=0;entryDy=0;exitX=0;exitY=0.5;exitDx=0;exitDy=0;" edge="1" parent="1" source="23oxVJ265cRKqnfMOttz-16" target="23oxVJ265cRKqnfMOttz-20">
          <mxGeometry width="160" relative="1" as="geometry">
            <mxPoint x="870" y="414.40999999999997" as="sourcePoint" />
            <mxPoint x="1030" y="414.40999999999997" as="targetPoint" />
            <Array as="points">
              <mxPoint x="813" y="395" />
            </Array>
          </mxGeometry>
        </mxCell>
        <mxCell id="23oxVJ265cRKqnfMOttz-25" value="" style="endArrow=block;dashed=1;endFill=0;endSize=12;html=1;rounded=0;entryX=0.5;entryY=1;entryDx=0;entryDy=0;exitX=0.5;exitY=0;exitDx=0;exitDy=0;" edge="1" parent="1" source="23oxVJ265cRKqnfMOttz-12" target="23oxVJ265cRKqnfMOttz-16">
          <mxGeometry width="160" relative="1" as="geometry">
            <mxPoint x="1220" y="440" as="sourcePoint" />
            <mxPoint x="1440" y="430" as="targetPoint" />
            <Array as="points">
              <mxPoint x="1095" y="460" />
              <mxPoint x="1195" y="460" />
            </Array>
          </mxGeometry>
        </mxCell>
        <mxCell id="23oxVJ265cRKqnfMOttz-26" value="" style="endArrow=block;dashed=1;endFill=0;endSize=12;html=1;rounded=0;entryX=1;entryY=0.5;entryDx=0;entryDy=0;exitX=0.5;exitY=0;exitDx=0;exitDy=0;" edge="1" parent="1" source="23oxVJ265cRKqnfMOttz-17" target="23oxVJ265cRKqnfMOttz-16">
          <mxGeometry width="160" relative="1" as="geometry">
            <mxPoint x="1400" y="490" as="sourcePoint" />
            <mxPoint x="1463" y="420" as="targetPoint" />
            <Array as="points">
              <mxPoint x="1405" y="395" />
            </Array>
          </mxGeometry>
        </mxCell>
        <mxCell id="23oxVJ265cRKqnfMOttz-27" value="" style="endArrow=block;dashed=1;endFill=0;endSize=12;html=1;rounded=0;entryX=0.5;entryY=1;entryDx=0;entryDy=0;exitX=-0.006;exitY=-0.003;exitDx=0;exitDy=0;exitPerimeter=0;" edge="1" parent="1" source="23oxVJ265cRKqnfMOttz-23" target="23oxVJ265cRKqnfMOttz-10">
          <mxGeometry width="160" relative="1" as="geometry">
            <mxPoint x="495" y="750" as="sourcePoint" />
            <mxPoint x="890" y="550" as="targetPoint" />
            <Array as="points">
              <mxPoint x="495" y="707" />
            </Array>
          </mxGeometry>
        </mxCell>
        <mxCell id="23oxVJ265cRKqnfMOttz-29" style="edgeStyle=orthogonalEdgeStyle;rounded=0;orthogonalLoop=1;jettySize=auto;html=1;exitX=0.5;exitY=0;exitDx=0;exitDy=0;entryX=0.507;entryY=1.02;entryDx=0;entryDy=0;entryPerimeter=0;" edge="1" parent="1" source="23oxVJ265cRKqnfMOttz-20" target="23oxVJ265cRKqnfMOttz-9">
          <mxGeometry relative="1" as="geometry" />
        </mxCell>
        <mxCell id="23oxVJ265cRKqnfMOttz-30" value="" style="endArrow=block;dashed=1;endFill=0;endSize=12;html=1;rounded=0;entryX=0.501;entryY=1.029;entryDx=0;entryDy=0;entryPerimeter=0;exitX=0.5;exitY=0;exitDx=0;exitDy=0;" edge="1" parent="1" source="23oxVJ265cRKqnfMOttz-2" target="KO_ulKDEuLXpoR2yVx4b-4">
          <mxGeometry width="160" relative="1" as="geometry">
            <mxPoint x="80" y="680" as="sourcePoint" />
            <mxPoint x="240" y="680" as="targetPoint" />
          </mxGeometry>
        </mxCell>
        <mxCell id="23oxVJ265cRKqnfMOttz-31" value="" style="endArrow=block;dashed=1;endFill=0;endSize=12;html=1;rounded=0;entryX=-0.015;entryY=0.262;entryDx=0;entryDy=0;entryPerimeter=0;exitX=0.989;exitY=-0.079;exitDx=0;exitDy=0;exitPerimeter=0;" edge="1" parent="1" source="KO_ulKDEuLXpoR2yVx4b-4" target="23oxVJ265cRKqnfMOttz-23">
          <mxGeometry width="160" relative="1" as="geometry">
            <mxPoint x="410" y="800" as="sourcePoint" />
            <mxPoint x="570" y="800" as="targetPoint" />
            <Array as="points">
              <mxPoint x="400" y="564" />
              <mxPoint x="400" y="766" />
            </Array>
          </mxGeometry>
        </mxCell>
        <mxCell id="23oxVJ265cRKqnfMOttz-32" value="" style="endArrow=block;dashed=1;endFill=0;endSize=12;html=1;rounded=0;exitX=0.998;exitY=0.751;exitDx=0;exitDy=0;exitPerimeter=0;entryX=-0.015;entryY=0.596;entryDx=0;entryDy=0;entryPerimeter=0;" edge="1" parent="1" source="23oxVJ265cRKqnfMOttz-3" target="23oxVJ265cRKqnfMOttz-23">
          <mxGeometry width="160" relative="1" as="geometry">
            <mxPoint x="350" y="840" as="sourcePoint" />
            <mxPoint x="468.24" y="840" as="targetPoint" />
          </mxGeometry>
        </mxCell>
      </root>
    </mxGraphModel>
  </diagram>
</mxfile>
